<?xml version="1.0" standalone="no"?>
<!DOCTYPE svg PUBLIC "-//W3C//DTD SVG 20010904//EN"
 "http://www.w3.org/TR/2001/REC-SVG-20010904/DTD/svg10.dtd">
<svg version="1.0" xmlns="http://www.w3.org/2000/svg"
 width="666.000000pt" height="748.000000pt" viewBox="0 0 666.000000 748.000000"
 preserveAspectRatio="xMidYMid meet">
<metadata>
Created by potrace 1.16, written by Peter Selinger 2001-2019
</metadata>
<g transform="translate(0.000000,748.000000) scale(0.100000,-0.100000)"
fill="#000000" stroke="none">
<path d="M1324 7292 l-51 -3 -7 -80 c-4 -44 -14 -106 -22 -137 -9 -31 -21 -81
-26 -109 -6 -29 -14 -53 -19 -53 -5 0 -9 -10 -9 -22 0 -13 -7 -32 -15 -42 -8
-11 -15 -29 -15 -41 0 -11 -9 -27 -20 -35 -11 -8 -20 -18 -20 -23 0 -12 -66
-77 -78 -77 -5 0 -13 -7 -16 -15 -3 -9 -21 -22 -40 -30 -19 -8 -40 -20 -48
-28 -7 -7 -42 -24 -78 -37 -36 -13 -69 -27 -75 -31 -10 -7 -42 -12 -153 -25
l-52 -6 4 -1977 c2 -1267 7 -2005 14 -2056 29 -225 34 -260 43 -276 5 -10 9
-29 9 -43 0 -14 4 -27 9 -30 4 -3 11 -29 14 -57 4 -28 10 -56 16 -63 5 -6 12
-30 16 -53 4 -24 10 -43 13 -43 10 0 32 -50 32 -71 0 -9 11 -33 25 -53 14 -20
25 -40 25 -44 0 -4 11 -19 25 -34 14 -15 25 -34 25 -41 0 -8 7 -20 15 -27 8
-7 15 -19 15 -27 0 -7 6 -16 14 -19 7 -3 22 -21 32 -40 10 -19 26 -37 36 -40
9 -3 20 -14 23 -24 3 -10 15 -22 26 -25 10 -4 19 -11 19 -16 0 -15 112 -121
251 -238 20 -17 41 -31 47 -31 5 0 12 -7 16 -15 3 -8 14 -15 25 -15 11 0 21
-5 23 -11 4 -13 57 -46 136 -85 28 -15 52 -30 52 -34 0 -5 14 -12 32 -15 18
-4 39 -11 48 -15 77 -40 144 -70 156 -70 7 0 28 -8 46 -18 34 -18 149 -67 226
-96 23 -9 54 -16 67 -16 14 0 35 -5 48 -12 42 -21 53 -25 87 -33 19 -3 67 -17
105 -30 121 -40 178 -57 235 -71 110 -26 166 -42 210 -59 25 -9 59 -20 75 -24
44 -12 161 -69 175 -86 7 -8 21 -15 31 -15 11 0 19 -4 19 -10 0 -5 6 -10 14
-10 8 0 28 -14 44 -30 17 -17 34 -30 39 -30 10 0 63 -59 63 -69 0 -15 34 -76
49 -91 9 -8 22 -27 29 -42 14 -34 61 -39 77 -9 36 67 58 104 73 121 9 10 26
31 37 45 11 15 25 32 31 38 40 41 179 122 274 160 14 5 34 13 45 18 11 4 31
11 45 15 14 3 43 15 65 24 22 10 65 23 95 29 146 31 188 40 230 54 25 8 67 18
94 22 26 3 63 15 80 25 18 9 48 21 66 25 32 7 42 11 90 35 11 6 25 10 32 10 7
0 25 6 39 14 14 7 39 16 55 20 16 4 49 16 74 27 25 12 68 31 95 44 194 87 262
120 334 165 34 22 66 40 71 40 6 0 58 37 97 70 7 5 17 10 22 10 5 0 16 6 23
13 7 8 32 26 56 41 23 14 42 31 42 36 0 6 6 10 13 10 14 0 128 109 182 173 17
20 51 60 78 89 26 29 57 72 68 95 11 24 25 45 29 48 5 3 25 40 46 83 20 42 45
94 55 115 10 20 21 54 25 75 4 20 10 42 15 47 4 6 12 35 18 65 5 30 15 73 21
95 7 22 16 76 21 120 5 44 15 109 21 145 9 48 13 588 15 2072 l4 2006 -48 5
c-83 10 -127 18 -148 27 -93 41 -116 50 -129 50 -9 0 -16 4 -16 8 0 5 -16 17
-35 28 -19 10 -35 22 -35 26 0 5 -5 8 -11 8 -21 0 -94 85 -124 146 -16 32 -39
73 -50 89 -12 17 -29 64 -38 105 -41 190 -47 220 -47 259 l0 41 -2087 2
c-1149 2 -2111 2 -2139 0z m4112 -222 c7 -36 19 -85 28 -110 9 -25 21 -64 26
-87 6 -23 17 -49 25 -57 8 -8 15 -22 15 -31 0 -31 134 -215 158 -215 6 0 12
-4 12 -9 0 -10 124 -91 140 -91 5 0 10 -4 10 -9 0 -5 16 -12 36 -15 19 -4 51
-16 69 -26 18 -10 51 -22 72 -26 21 -4 43 -14 49 -23 14 -18 9 -3858 -5 -3986
-9 -85 -47 -277 -61 -310 -4 -11 -16 -45 -26 -75 -9 -30 -23 -69 -31 -87 -7
-17 -13 -35 -13 -40 0 -15 -25 -63 -32 -63 -5 0 -8 -5 -8 -12 0 -10 -56 -105
-70 -118 -3 -3 -18 -23 -35 -45 -41 -57 -70 -89 -149 -164 -111 -106 -127
-121 -131 -121 -5 0 -58 -37 -127 -88 -31 -23 -60 -42 -63 -42 -3 0 -30 -15
-60 -34 -29 -19 -74 -44 -99 -55 -25 -12 -48 -25 -51 -31 -3 -5 -14 -10 -24
-10 -10 0 -29 -8 -42 -19 -13 -10 -35 -22 -49 -26 -14 -4 -47 -17 -75 -30 -49
-21 -95 -40 -165 -65 -19 -7 -78 -28 -130 -47 -146 -53 -339 -109 -425 -123
-27 -4 -61 -12 -75 -18 -14 -5 -43 -15 -65 -20 -97 -26 -156 -46 -161 -53 -3
-5 -14 -9 -25 -9 -24 0 -99 -32 -99 -42 0 -5 -6 -8 -14 -8 -12 0 -96 -41 -151
-73 -33 -20 -73 -54 -164 -141 l-41 -40 -58 60 c-32 32 -68 66 -81 74 -13 8
-29 21 -37 28 -7 6 -17 12 -22 12 -5 0 -15 7 -22 15 -7 9 -36 27 -64 40 -126
58 -168 75 -181 75 -9 0 -34 9 -58 20 -23 10 -60 24 -82 29 -22 5 -56 14 -75
20 -19 6 -55 15 -80 22 -85 21 -155 42 -215 62 -33 11 -76 24 -95 28 -19 4
-80 24 -135 45 -55 20 -118 42 -140 48 -22 7 -51 17 -65 23 -14 6 -59 25 -100
42 -81 32 -283 134 -349 175 -22 14 -44 26 -49 26 -5 0 -19 11 -32 25 -13 14
-27 25 -32 25 -5 0 -21 11 -36 25 -15 14 -31 25 -35 25 -9 0 -27 16 -159 140
-38 36 -76 69 -84 73 -8 4 -14 13 -14 19 0 6 -10 21 -23 33 -29 29 -57 67 -57
78 0 4 -10 18 -23 30 -12 12 -28 33 -35 47 -7 14 -28 52 -48 85 -19 33 -37 67
-40 75 -3 8 -12 30 -20 48 -8 18 -14 39 -14 46 0 7 -11 40 -25 74 -14 34 -25
73 -25 87 0 15 -6 47 -14 73 -36 122 -37 163 -36 2168 0 1208 4 1972 9 1977 6
6 33 14 62 18 29 5 55 12 58 17 7 10 75 42 90 42 6 0 11 3 11 8 0 4 14 13 30
20 17 8 36 19 43 25 6 7 30 25 52 41 63 47 175 168 175 190 0 5 9 30 21 55 31
69 35 80 53 151 10 36 26 95 37 133 l20 67 2007 -2 2007 -3 11 -65z"/>
<path d="M2908 6993 l-1388 -3 0 -25 c0 -14 -8 -42 -19 -63 -10 -20 -22 -52
-26 -69 -3 -18 -11 -35 -16 -38 -5 -4 -9 -15 -9 -26 0 -10 -4 -19 -10 -19 -5
0 -12 -15 -16 -34 -3 -19 -12 -37 -20 -40 -8 -3 -14 -15 -14 -26 0 -11 -4 -20
-8 -20 -4 0 -15 -12 -24 -27 -22 -36 -64 -87 -100 -120 -7 -7 -18 -18 -25 -25
-22 -23 -42 -38 -53 -38 -5 0 -10 -4 -10 -10 0 -5 -11 -12 -25 -16 -14 -3 -25
-10 -25 -15 0 -5 -6 -9 -14 -9 -7 0 -26 -10 -41 -22 -37 -29 -95 -58 -117 -58
-10 0 -18 -4 -18 -9 0 -5 -9 -11 -21 -13 l-21 -3 0 -1923 c0 -1252 3 -1927 10
-1935 5 -6 12 -28 15 -47 19 -128 31 -186 38 -194 5 -6 9 -20 9 -32 0 -13 4
-25 9 -28 4 -3 11 -24 15 -47 4 -23 15 -54 25 -68 10 -14 21 -39 25 -54 4 -16
18 -46 31 -68 14 -21 25 -43 25 -49 0 -5 4 -10 9 -10 5 0 13 -10 17 -22 3 -12
16 -31 28 -43 11 -12 32 -36 46 -54 31 -42 167 -178 210 -210 18 -14 46 -37
62 -53 17 -15 35 -28 41 -28 6 0 20 -8 31 -18 36 -32 167 -107 281 -161 61
-28 123 -58 138 -66 16 -8 37 -15 48 -15 10 0 19 -4 19 -10 0 -5 9 -10 20 -10
11 0 20 -4 20 -10 0 -5 9 -10 21 -10 19 0 66 -17 110 -40 9 -5 34 -12 55 -16
22 -4 53 -14 69 -22 17 -8 55 -21 85 -28 154 -36 128 -28 388 -108 46 -14 92
-26 102 -26 10 0 22 -5 25 -10 3 -6 15 -10 26 -10 10 0 27 -4 37 -9 40 -22 84
-40 114 -47 18 -3 49 -17 68 -30 19 -13 40 -24 47 -24 7 0 13 -3 13 -8 0 -4
17 -16 38 -27 20 -11 47 -30 60 -43 13 -12 27 -22 32 -22 6 0 19 -9 31 -21 29
-29 49 -21 124 51 12 11 25 20 29 20 5 0 24 11 41 24 18 14 44 28 58 31 14 4
34 15 46 26 11 10 28 19 38 19 10 0 30 6 45 14 15 8 41 17 59 21 19 4 40 11
49 15 37 18 67 29 99 36 18 3 52 15 75 25 22 10 53 19 68 19 15 0 62 12 104
26 42 14 99 28 128 31 28 3 56 9 61 13 6 4 26 11 45 14 34 7 65 18 102 37 10
5 26 9 35 9 10 0 31 7 47 15 15 8 36 15 45 15 9 0 25 7 35 15 11 8 29 15 40
15 12 0 32 9 46 20 14 11 33 20 43 20 11 0 31 6 45 14 51 26 158 76 164 76 3
0 35 18 69 40 35 22 74 44 86 50 12 5 45 25 72 45 28 19 55 35 60 35 6 0 14 6
18 13 4 8 21 22 38 33 16 10 45 34 64 51 20 18 43 35 53 38 9 4 20 15 23 25 3
10 15 22 26 25 10 4 19 10 19 14 0 5 10 19 23 33 12 14 34 39 49 55 14 17 30
32 35 34 9 4 73 106 73 116 0 4 18 44 40 89 22 46 40 90 40 99 0 9 9 37 20 63
20 48 33 108 50 222 5 36 14 89 20 119 7 36 10 675 10 1942 l0 1888 -32 15
c-17 9 -37 16 -45 16 -7 0 -13 4 -13 9 0 5 -10 11 -23 15 -12 3 -32 14 -44 25
-12 11 -33 23 -47 27 -14 3 -26 10 -26 15 0 5 -9 9 -20 9 -11 0 -23 7 -26 15
-4 8 -10 15 -15 15 -15 0 -51 33 -147 135 -46 49 -136 227 -177 348 l-30 87
-480 0 c-264 0 -489 1 -500 3 -11 1 -644 1 -1407 0z m2242 -156 c9 -7 24 -32
35 -57 11 -25 22 -47 25 -50 3 -3 16 -32 28 -65 13 -33 34 -77 47 -97 14 -21
25 -42 25 -48 0 -5 9 -15 20 -22 11 -7 20 -17 20 -23 0 -5 20 -32 45 -58 39
-44 43 -51 33 -73 -6 -13 -15 -24 -20 -24 -4 0 -21 -13 -36 -30 -16 -16 -36
-30 -45 -30 -9 0 -19 -9 -22 -20 -3 -11 -13 -20 -20 -20 -8 0 -28 -13 -45 -30
-17 -16 -33 -30 -36 -30 -3 0 -12 -6 -19 -12 -8 -7 -28 -24 -45 -38 -17 -14
-44 -36 -59 -50 -16 -14 -39 -32 -51 -40 -13 -8 -33 -25 -46 -37 -13 -13 -27
-23 -32 -23 -5 0 -22 -13 -38 -30 -16 -16 -32 -30 -36 -30 -4 0 -23 -16 -42
-35 -20 -19 -40 -35 -45 -35 -5 0 -23 -12 -40 -27 -16 -16 -43 -38 -58 -51
-54 -43 -78 -63 -99 -81 -12 -10 -28 -22 -36 -27 -16 -10 -100 -80 -150 -126
-17 -16 -34 -28 -40 -28 -5 0 -19 -10 -31 -23 -12 -12 -38 -34 -58 -49 -42
-31 -80 -63 -120 -100 -16 -16 -34 -28 -38 -28 -5 0 -23 -12 -39 -27 -17 -16
-45 -39 -63 -53 -18 -14 -43 -35 -55 -47 -13 -13 -27 -23 -31 -23 -5 0 -16 -9
-26 -20 -9 -11 -23 -20 -31 -20 -8 0 -18 -9 -21 -20 -3 -11 -13 -20 -21 -20
-8 0 -17 -7 -20 -15 -4 -8 -12 -15 -19 -15 -7 0 -15 -7 -19 -15 -3 -8 -12 -15
-19 -15 -8 0 -19 -11 -25 -25 -6 -14 -19 -25 -27 -25 -9 0 -23 -6 -30 -12 -8
-7 -28 -24 -44 -38 -17 -14 -44 -37 -60 -52 -15 -16 -31 -28 -35 -28 -4 0 -18
-11 -32 -25 -14 -14 -28 -25 -32 -25 -4 0 -28 -18 -52 -40 -24 -22 -47 -40
-50 -40 -3 0 -19 -12 -36 -27 -17 -16 -43 -37 -58 -48 -15 -11 -38 -29 -50
-40 -75 -66 -99 -85 -104 -85 -4 0 -22 -14 -40 -30 -19 -16 -47 -39 -63 -52
-17 -13 -43 -34 -58 -48 -16 -14 -48 -41 -72 -60 -23 -19 -49 -43 -58 -52 -8
-10 -19 -18 -23 -18 -5 0 -16 -7 -25 -15 -29 -25 -70 -59 -104 -85 -17 -14
-44 -37 -59 -52 -15 -16 -31 -28 -36 -28 -9 0 -46 -30 -109 -88 -16 -15 -57
-47 -90 -72 -60 -44 -98 -76 -137 -117 -12 -13 -27 -23 -34 -23 -7 0 -17 -6
-21 -13 -4 -7 -28 -28 -53 -47 -25 -19 -56 -45 -70 -57 -14 -13 -29 -23 -33
-23 -5 0 -18 -11 -29 -25 -11 -14 -25 -25 -32 -25 -6 0 -18 -9 -26 -21 -8 -11
-31 -30 -50 -42 -19 -11 -44 -31 -55 -44 -11 -13 -26 -23 -32 -23 -7 0 -18 -8
-25 -18 -7 -10 -49 -45 -93 -78 -44 -32 -82 -62 -85 -65 -5 -7 -116 -97 -167
-136 -15 -12 -38 -30 -51 -40 -12 -10 -36 -29 -53 -43 -17 -14 -37 -30 -43
-35 -6 -6 -31 -26 -56 -45 -25 -19 -70 -56 -101 -82 -31 -26 -62 -48 -68 -48
-17 0 -16 3314 2 3328 6 5 23 13 37 16 40 12 92 39 120 64 13 12 32 22 42 22
9 0 20 9 23 20 3 11 12 20 20 20 19 0 151 131 159 158 4 12 11 22 15 22 13 0
77 111 106 185 15 39 30 75 34 80 4 6 13 29 20 53 l12 42 1737 0 c1350 -1
1740 -3 1752 -13z m390 -557 c0 -5 6 -10 13 -10 8 0 27 -11 43 -25 16 -14 39
-28 52 -31 12 -4 22 -9 22 -13 0 -4 19 -15 43 -26 23 -10 45 -23 49 -29 4 -6
8 -131 8 -277 l0 -267 -51 -46 c-28 -26 -64 -53 -80 -62 -16 -8 -29 -19 -29
-24 0 -6 -4 -10 -10 -10 -5 0 -27 -16 -47 -35 -20 -19 -40 -35 -44 -35 -6 0
-43 -30 -107 -87 -14 -13 -28 -23 -31 -23 -3 0 -19 -12 -36 -26 -16 -14 -42
-35 -58 -47 -15 -12 -48 -41 -74 -64 -25 -24 -52 -43 -59 -43 -7 0 -16 -9 -19
-20 -3 -11 -16 -22 -29 -26 -12 -3 -30 -16 -40 -30 -11 -13 -25 -24 -32 -24
-7 0 -19 -8 -26 -18 -7 -9 -26 -25 -41 -35 -16 -10 -47 -36 -70 -58 -23 -21
-45 -39 -49 -39 -5 0 -16 -8 -26 -17 -20 -20 -59 -50 -93 -73 -12 -8 -31 -24
-43 -35 -11 -11 -41 -36 -66 -55 -25 -19 -54 -43 -65 -52 -45 -38 -68 -56
-139 -108 -41 -30 -78 -63 -81 -72 -4 -10 -12 -18 -19 -18 -7 0 -22 -8 -34
-17 -11 -10 -35 -29 -53 -43 -18 -14 -37 -29 -44 -35 -35 -32 -115 -95 -120
-95 -4 0 -12 -6 -20 -12 -7 -7 -32 -29 -55 -48 -24 -19 -50 -43 -59 -52 -8
-10 -21 -18 -28 -18 -6 0 -18 -8 -25 -18 -7 -9 -25 -25 -39 -34 -14 -9 -32
-23 -40 -30 -8 -8 -32 -27 -54 -43 -21 -17 -47 -37 -56 -45 -24 -22 -51 -43
-79 -61 -14 -9 -40 -29 -57 -45 -18 -16 -53 -45 -78 -64 -26 -19 -62 -50 -81
-67 -20 -18 -40 -33 -45 -33 -5 0 -21 -11 -36 -25 -47 -41 -192 -155 -198
-155 -3 0 -16 -10 -29 -22 -12 -13 -37 -34 -55 -48 -17 -14 -42 -34 -55 -45
-12 -11 -35 -29 -50 -40 -42 -29 -168 -134 -189 -156 -10 -10 -21 -19 -25 -19
-4 0 -18 -10 -32 -23 -14 -12 -43 -36 -65 -52 -22 -17 -44 -36 -48 -42 -4 -7
-14 -13 -22 -13 -8 0 -20 -8 -27 -18 -7 -10 -29 -29 -48 -43 -19 -13 -42 -31
-50 -39 -8 -8 -33 -29 -55 -45 -21 -16 -46 -36 -55 -45 -28 -27 -88 -70 -99
-70 -6 0 -11 -4 -11 -8 0 -5 -23 -26 -51 -48 -27 -21 -61 -48 -74 -60 -14 -11
-36 -29 -51 -40 -15 -10 -55 -43 -90 -71 -34 -29 -65 -53 -68 -53 -3 0 -14 -8
-24 -18 -10 -9 -33 -28 -52 -42 -19 -14 -60 -46 -91 -72 -32 -27 -63 -48 -69
-48 -5 0 -10 -4 -10 -10 0 -5 -42 -40 -93 -79 -50 -38 -101 -77 -112 -88 -49
-46 -187 -142 -199 -137 -12 5 -38 60 -81 174 -8 19 -16 57 -19 84 -3 27 -10
54 -15 60 -26 31 -46 396 -22 404 11 4 28 18 92 77 9 8 21 15 27 15 6 0 14 9
17 20 3 11 9 20 13 20 4 0 23 14 42 30 45 38 45 38 112 89 32 24 58 47 58 52
0 5 5 9 11 9 8 0 65 43 125 95 6 6 21 17 34 25 12 8 34 26 49 40 15 14 41 34
57 45 16 11 42 32 57 48 16 15 32 27 36 27 4 0 16 9 26 20 10 11 22 20 26 20
4 0 19 10 32 23 14 12 39 33 56 47 18 14 46 37 62 53 17 15 34 27 38 27 3 0
26 18 51 40 50 45 50 44 104 85 22 17 54 42 70 58 17 15 34 27 38 27 4 0 18
10 31 23 30 29 87 75 175 142 8 5 26 21 42 35 16 14 41 34 57 45 15 11 41 32
56 48 16 15 32 27 36 27 4 0 19 9 32 20 13 11 36 30 51 43 25 20 55 46 120
103 12 11 41 33 63 50 22 16 46 34 53 41 7 7 34 29 60 50 26 21 52 43 58 48 6
6 21 17 34 25 22 15 67 54 105 91 12 10 26 19 32 19 7 0 16 6 20 13 4 7 34 33
66 56 31 24 57 47 57 52 0 5 6 9 14 9 7 0 26 12 42 28 16 15 44 38 62 52 18
14 43 33 55 42 12 10 35 28 51 40 15 13 39 33 53 46 13 12 28 22 33 22 5 0 13
6 17 13 4 7 35 33 68 58 33 24 64 50 68 56 4 7 12 13 17 13 5 0 20 10 33 23
54 51 86 77 92 77 3 0 12 6 20 13 7 6 28 23 45 36 18 14 45 36 61 50 15 14 42
37 59 51 17 14 37 31 45 38 7 6 17 12 21 12 4 0 20 14 36 30 15 17 35 30 42
30 8 0 18 9 21 20 3 11 13 20 20 20 8 0 18 6 22 13 4 6 35 32 68 57 33 25 65
50 72 55 6 6 25 21 42 35 17 14 43 36 59 50 17 14 40 32 52 40 12 8 30 22 40
30 41 34 103 86 114 96 6 5 38 30 71 54 33 24 64 49 68 57 4 7 12 13 17 13 5
0 19 10 32 23 13 12 38 33 56 47 63 48 128 99 162 130 16 14 41 34 56 45 15
11 39 30 53 42 44 38 50 43 55 43 3 0 17 11 32 25 28 26 44 32 44 15z m230
-2297 c-1 -884 -5 -1506 -10 -1548 -19 -139 -52 -294 -72 -335 -9 -19 -19 -46
-23 -60 -10 -39 -59 -134 -72 -143 -7 -4 -13 -15 -13 -22 0 -8 -4 -15 -9 -15
-5 0 -13 -10 -17 -22 -16 -51 -272 -278 -381 -338 -74 -41 -97 -55 -112 -68
-8 -8 -37 -24 -65 -38 -28 -13 -58 -27 -66 -32 -43 -24 -83 -42 -97 -42 -8 0
-32 -8 -52 -19 -20 -10 -56 -26 -81 -36 -25 -9 -57 -23 -72 -31 -14 -8 -33
-14 -42 -14 -9 0 -33 -8 -54 -18 -20 -10 -93 -33 -162 -51 -69 -18 -134 -37
-145 -41 -11 -5 -69 -21 -130 -36 -60 -14 -176 -48 -257 -74 -134 -44 -184
-65 -258 -107 -14 -8 -43 -22 -65 -32 -22 -10 -46 -26 -54 -35 -19 -23 -67
-20 -104 6 -49 35 -212 117 -275 137 -174 57 -252 81 -267 81 -9 0 -33 9 -55
20 -22 11 -50 20 -63 20 -13 0 -50 9 -83 21 -32 11 -84 26 -114 34 -113 28
-172 46 -193 57 -12 7 -40 18 -62 24 -75 23 -160 55 -198 74 -22 11 -43 20
-48 20 -5 0 -52 20 -103 45 -52 25 -99 45 -103 45 -5 0 -14 9 -20 19 -7 11
-26 22 -43 26 -16 4 -30 10 -30 15 0 5 -24 23 -52 40 -75 45 -119 77 -135 100
-8 11 -20 20 -26 20 -7 0 -43 33 -82 74 -100 104 -113 120 -126 148 -13 29 -5
40 66 93 42 32 67 52 119 97 17 15 35 28 39 28 8 0 37 24 94 78 13 12 27 22
31 22 4 0 23 14 42 30 19 16 40 34 47 40 7 5 16 10 21 10 5 0 21 14 35 30 15
17 31 30 37 30 5 0 19 10 32 23 24 23 54 46 125 98 24 17 43 35 43 40 0 5 6 9
14 9 7 0 27 12 43 28 69 63 90 80 118 98 29 18 49 35 101 81 13 12 59 49 102
82 42 33 89 70 104 83 15 13 52 43 83 68 31 25 76 60 98 78 53 42 116 94 131
108 6 6 19 15 28 20 18 10 84 64 125 102 13 12 28 22 33 22 5 0 13 6 17 13 4
7 35 33 68 58 33 24 66 49 72 56 7 6 16 13 21 15 4 1 23 22 42 46 18 23 39 42
47 42 7 0 16 7 19 15 4 8 12 15 18 15 7 0 36 22 66 50 29 27 61 52 72 56 10 3
18 9 18 14 0 5 24 25 53 44 28 19 72 52 96 75 24 23 47 41 50 41 4 0 27 18 51
40 24 22 47 40 51 40 3 0 20 12 37 28 18 15 46 38 63 52 17 14 44 36 60 50 16
14 36 31 44 38 8 6 18 12 22 12 4 0 21 14 37 30 16 17 33 30 38 30 5 0 20 10
33 23 50 47 85 77 112 94 16 10 30 20 33 23 3 3 23 19 45 36 22 16 49 38 60
49 11 11 47 40 80 65 33 24 65 49 72 55 6 5 25 21 42 35 17 14 41 34 53 45 13
12 31 24 41 28 9 3 17 11 17 17 0 5 5 10 10 10 10 0 121 88 165 130 12 11 25
20 31 20 5 0 17 8 26 18 8 9 31 28 49 42 19 14 44 35 56 47 12 12 32 24 43 28
11 3 20 10 20 15 0 5 35 35 77 66 42 31 87 67 100 78 29 27 37 34 108 86 62
46 66 49 114 90 44 38 82 67 129 100 23 17 42 34 42 39 0 5 9 12 19 16 16 5
67 45 106 84 35 35 35 48 35 -1466z"/>
<path d="M2550 6381 c0 -5 -34 -12 -75 -16 -41 -4 -78 -11 -81 -16 -3 -5 -21
-9 -40 -9 -19 0 -34 -4 -34 -9 0 -4 -37 -11 -82 -15 -46 -4 -87 -11 -92 -16
-6 -6 -24 -10 -41 -10 -17 0 -35 -4 -41 -10 -5 -5 -46 -12 -92 -16 -45 -4 -82
-11 -82 -15 0 -5 -11 -9 -24 -9 -14 0 -28 -4 -31 -10 -3 -5 -23 -10 -44 -10
-21 0 -61 -7 -89 -16 l-50 -16 6 -42 c3 -22 12 -57 21 -76 13 -31 15 -32 19
-13 2 12 -2 31 -7 42 -28 51 -2 54 91 9 60 -30 68 -37 87 -83 12 -28 21 -60
21 -73 0 -12 5 -22 10 -22 6 0 10 -8 10 -18 0 -10 4 -22 9 -27 5 -6 12 -27 15
-48 l7 -38 -70 2 c-39 1 -75 7 -79 13 -10 13 -34 81 -51 143 -14 52 -31 65
-31 24 0 -16 5 -33 10 -36 6 -3 10 -15 10 -26 0 -10 4 -19 9 -19 11 0 24 -81
15 -103 -3 -9 -14 -19 -23 -22 -10 -3 -54 -41 -99 -85 -59 -57 -82 -86 -82
-104 0 -27 47 -81 80 -91 20 -6 28 -35 10 -35 -5 0 -10 -16 -10 -35 0 -19 -4
-35 -8 -35 -4 0 -15 -16 -24 -36 -17 -36 -16 -37 8 -56 13 -11 24 -26 24 -34
0 -8 5 -14 10 -14 6 0 24 -13 40 -30 23 -24 38 -30 70 -30 48 0 53 -19 13 -53
-15 -12 -41 -35 -59 -52 -18 -16 -46 -41 -63 -55 -17 -14 -45 -37 -63 -52 -17
-16 -37 -28 -44 -28 -8 0 -14 -4 -14 -9 0 -5 -9 -12 -19 -16 -11 -3 -23 -15
-26 -25 -4 -11 -16 -22 -29 -26 -12 -3 -30 -16 -40 -30 -11 -13 -25 -24 -32
-24 -8 0 -14 -3 -14 -8 0 -12 50 -29 105 -37 28 -4 55 -10 60 -15 6 -4 37 -10
70 -14 57 -6 59 -5 30 9 -16 7 -51 17 -77 20 -27 3 -48 10 -48 16 0 5 -7 9
-15 9 -8 0 -15 5 -15 10 0 6 6 10 13 10 23 0 152 -28 180 -39 16 -6 39 -11 52
-11 12 0 36 -7 51 -15 43 -22 129 -20 153 4 40 40 8 71 -71 71 -42 0 -51 14
-15 24 28 7 97 -4 97 -15 0 -5 7 -9 15 -9 11 0 15 -11 15 -35 0 -60 -73 -111
-123 -87 -22 10 -55 18 -131 29 -27 4 -37 2 -32 -6 4 -6 20 -11 35 -11 15 0
31 -4 36 -9 15 -14 117 -28 145 -20 40 11 100 10 100 -2 0 -13 55 -69 68 -69
6 0 12 -4 14 -8 4 -11 86 -52 103 -52 8 0 15 -4 15 -10 0 -5 7 -10 15 -10 8 0
15 -4 15 -10 0 -5 10 -10 22 -10 20 0 21 1 3 20 -10 11 -26 20 -36 20 -10 0
-24 7 -33 15 -8 8 -21 15 -29 15 -14 0 -57 32 -57 44 0 12 25 5 50 -14 14 -11
31 -20 39 -20 19 0 145 -61 149 -72 2 -4 20 -8 40 -8 29 0 39 -5 47 -22 13
-29 62 -40 50 -11 -4 10 -7 23 -6 28 0 6 2 21 3 34 2 17 -4 29 -17 36 -28 15
-139 87 -145 94 -8 9 -78 48 -137 76 -54 26 -68 45 -34 45 18 0 80 -28 91 -41
3 -3 17 -12 31 -20 38 -20 111 -70 127 -86 7 -7 20 -13 28 -13 8 0 14 -4 14
-8 0 -5 18 -18 40 -31 46 -26 59 -22 128 43 24 23 48 43 54 45 6 2 21 16 34
30 12 14 26 23 30 18 4 -4 -7 -19 -24 -34 -18 -14 -32 -32 -32 -39 0 -8 -7
-14 -15 -14 -8 0 -25 -11 -39 -25 -14 -14 -28 -25 -32 -25 -5 0 -21 -12 -36
-27 -27 -26 -34 -55 -22 -87 10 -25 29 -19 73 22 48 44 75 68 133 113 23 19
62 53 86 77 23 23 47 42 53 42 5 0 12 7 15 15 4 8 12 15 19 15 7 0 21 11 31
25 10 14 23 25 27 25 9 0 20 9 101 84 34 30 37 36 22 42 -13 5 -16 13 -12 30
8 28 -1 31 -23 6 -9 -9 -33 -28 -53 -42 -21 -14 -38 -28 -38 -32 0 -5 -6 -8
-14 -8 -8 0 -16 -7 -20 -15 -3 -8 -12 -15 -20 -15 -8 0 -18 -9 -21 -20 -3 -11
-13 -20 -21 -20 -8 0 -17 -7 -20 -15 -4 -8 -10 -15 -15 -15 -6 0 -20 -9 -32
-21 -33 -31 -58 -43 -51 -24 4 8 12 15 18 15 7 0 25 12 39 28 15 15 40 38 57
52 17 14 43 37 59 53 15 15 32 27 37 27 12 0 154 132 154 143 0 4 -9 7 -19 7
-10 0 -21 7 -25 15 -3 8 -10 15 -16 15 -5 0 -10 -7 -10 -15 0 -8 5 -15 10 -15
14 0 12 -19 -2 -33 -7 -7 -44 -37 -83 -67 -38 -29 -77 -61 -86 -69 -23 -22
-74 -64 -214 -175 -66 -53 -126 -101 -134 -108 -10 -8 -18 -8 -30 0 -9 7 -26
16 -39 22 -12 5 -25 17 -28 25 -4 8 -12 15 -18 15 -7 0 -37 17 -68 38 -77 52
-91 61 -108 69 -8 4 -18 11 -21 16 -3 5 -34 11 -68 14 -51 5 -61 9 -61 24 0
11 4 19 8 19 5 0 25 15 44 33 44 40 82 71 127 105 20 15 48 38 62 52 15 14 41
36 59 50 18 14 41 34 52 45 18 19 18 20 2 24 -10 2 -20 -2 -22 -8 -2 -6 -10
-11 -17 -11 -7 0 -15 -7 -19 -15 -3 -8 -10 -15 -16 -15 -5 0 -28 -17 -50 -37
-22 -21 -45 -42 -52 -48 -58 -46 -129 -106 -161 -137 -22 -21 -45 -38 -51 -38
-6 0 -17 -9 -24 -20 -16 -26 -26 -25 -57 6 l-27 27 -166 -6 c-92 -3 -191 -10
-220 -17 -29 -7 -56 -9 -60 -6 -6 6 25 37 113 111 26 22 52 45 59 50 6 6 29
24 51 40 22 17 49 40 61 53 12 12 26 22 31 22 5 0 18 9 29 21 16 18 20 18 29
5 8 -10 34 -16 81 -19 60 -3 56 -3 -28 -5 -141 -3 -126 -22 17 -22 63 0 115
-3 115 -8 0 -4 -58 -6 -130 -5 -123 2 -130 1 -130 -17 0 -19 8 -20 165 -20 91
0 165 2 165 5 0 3 -12 10 -26 15 -36 14 -20 30 29 30 43 0 42 15 -3 23 -14 2
-1 5 28 6 28 0 52 5 52 9 0 5 -68 12 -151 16 -84 4 -156 9 -160 12 -12 7 1 34
17 34 8 0 14 -4 14 -10 0 -6 50 -10 131 -10 84 0 128 4 124 10 -3 6 -31 10
-61 10 -30 0 -54 4 -54 9 0 5 53 10 117 10 64 1 119 4 122 6 2 3 -28 5 -67 5
-41 0 -72 4 -72 10 0 6 20 10 44 10 25 0 48 5 51 11 4 6 13 8 21 5 8 -3 24 -1
36 4 23 10 23 10 -2 9 -70 -3 -130 2 -130 11 0 18 218 12 262 -7 41 -18 51
-50 23 -73 -8 -7 -15 -16 -15 -21 0 -16 26 -9 50 14 14 12 35 27 48 34 31 17
159 20 174 5 7 -7 18 -12 26 -12 16 0 84 -30 92 -41 3 -3 16 -10 30 -14 14 -4
32 -16 40 -25 8 -9 26 -21 40 -25 14 -4 28 -13 32 -19 4 -6 10 -8 13 -4 9 9
-31 48 -49 48 -8 0 -16 7 -20 15 -3 8 -11 15 -18 15 -8 0 -20 9 -28 20 -8 11
-20 20 -27 20 -18 0 -82 33 -86 45 -3 7 93 10 276 10 215 0 281 3 284 13 3 6
14 12 26 12 12 0 35 7 51 15 15 8 35 15 42 15 8 0 14 5 14 10 0 16 -30 12 -59
-9 -14 -11 -49 -22 -76 -26 -28 -4 -55 -12 -62 -17 -22 -18 -478 2 -496 22 -3
3 -16 29 -30 58 -20 43 -22 55 -11 59 9 3 12 13 8 28 -4 18 -1 25 18 30 12 4
36 19 51 33 24 23 27 31 21 68 l-6 42 51 7 c28 4 51 10 51 15 0 4 30 11 66 15
61 6 66 8 61 28 -19 75 -33 119 -53 175 -13 34 -24 73 -24 87 0 14 -5 35 -12
48 -24 47 -28 57 -43 123 -8 37 -19 72 -24 78 -5 6 -12 26 -16 44 -6 28 -10
32 -40 32 -18 0 -35 -4 -37 -9 -1 -5 -27 -12 -55 -16 -46 -6 -54 -5 -59 12 -3
10 -10 27 -14 38 -5 11 -11 32 -14 48 -6 25 -10 27 -51 27 -25 0 -45 -4 -45
-9z m20 -38 c0 -15 -33 -65 -80 -120 -6 -7 -24 -13 -40 -13 -16 0 -31 -4 -34
-9 -3 -4 -36 -11 -72 -14 -37 -4 -72 -11 -78 -17 -5 -5 -29 -10 -53 -10 -24 0
-43 -4 -43 -9 0 -5 -30 -12 -67 -16 -38 -3 -76 -10 -85 -15 -10 -6 -27 -10
-37 -10 -11 0 -23 -4 -26 -10 -7 -12 -75 -14 -75 -2 0 8 -43 28 -82 38 -16 3
-28 10 -28 15 0 5 -9 9 -21 9 -31 0 -17 24 17 28 16 2 34 7 39 12 6 4 43 11
83 15 39 4 75 11 78 16 3 5 25 9 50 9 24 0 44 4 44 9 0 5 36 13 80 17 44 3 80
11 80 15 0 5 16 9 35 9 19 0 35 4 35 9 0 4 36 12 80 15 44 4 82 12 85 17 4 5
24 9 45 9 21 0 42 5 45 10 10 16 25 12 25 -7z m220 -116 c0 -7 -13 -26 -30
-42 -16 -16 -30 -33 -30 -37 0 -5 -18 -27 -40 -49 -22 -22 -40 -44 -40 -47 -1
-4 -23 -32 -50 -62 -28 -30 -50 -60 -50 -67 0 -6 -8 -14 -18 -18 -11 -3 -24
-17 -31 -31 -10 -23 -16 -25 -42 -20 -17 3 -43 15 -59 26 -15 11 -35 20 -43
20 -8 0 -34 11 -59 24 -25 13 -59 27 -76 31 -18 3 -32 11 -32 16 0 5 -11 9
-25 9 -14 0 -25 4 -25 9 0 5 -13 12 -30 16 -38 8 -113 48 -117 62 -4 11 68 29
155 40 23 3 42 9 42 13 0 4 27 11 60 15 33 4 60 11 60 15 0 4 17 10 38 13 96
13 188 30 197 38 6 4 38 11 73 15 34 3 65 11 68 15 9 15 104 11 104 -4z m75
-43 c3 -20 10 -44 14 -53 9 -17 29 -82 51 -161 7 -25 16 -54 21 -65 4 -11 11
-36 15 -55 3 -19 10 -41 15 -50 8 -15 22 -67 23 -84 1 -12 -37 -23 -134 -41
l-74 -14 -54 42 c-30 22 -56 47 -59 54 -3 7 -10 13 -17 13 -6 0 -28 9 -49 20
-20 11 -52 20 -71 20 -46 0 -53 14 -21 42 14 12 25 25 25 29 0 5 13 22 29 38
16 16 42 47 57 68 16 21 34 43 39 49 6 6 21 26 35 44 14 17 35 42 48 55 12 12
22 26 22 31 0 12 51 54 65 54 7 0 16 -16 20 -36z m-770 -198 c11 -5 42 -19 68
-32 27 -13 55 -24 63 -24 8 0 14 -4 14 -10 0 -5 8 -10 18 -10 9 0 44 -14 77
-30 33 -16 65 -30 71 -30 20 0 64 -25 61 -35 -4 -11 -435 -13 -477 -2 -22 5
-30 21 -60 114 -19 59 -36 113 -38 119 -3 10 90 -18 203 -60z m530 -238 c79
-42 151 -116 161 -167 5 -24 1 -32 -25 -47 -17 -10 -31 -22 -31 -26 0 -4 -9
-8 -20 -8 -25 0 -38 28 -19 42 10 7 4 8 -21 5 -43 -5 -60 0 -60 20 0 24 -51
72 -99 93 -39 18 -67 20 -271 20 -213 0 -228 -1 -250 -20 -14 -13 -37 -20 -61
-20 -37 0 -63 -14 -98 -52 -19 -22 -37 -23 -45 -2 -9 24 -8 31 10 48 10 11 12
16 3 16 -17 0 -49 -30 -49 -47 0 -7 -4 -13 -10 -13 -5 0 -10 -8 -10 -17 0 -24
-30 -53 -55 -53 -25 0 -86 28 -97 44 -15 22 -7 57 19 79 14 12 42 37 61 55 18
17 37 32 40 32 4 0 20 11 36 25 l29 25 401 0 401 0 60 -32z m-114 -100 c48
-22 73 -98 33 -98 -8 0 -14 -4 -14 -9 0 -19 35 -71 51 -76 11 -4 18 -21 22
-53 6 -51 -4 -72 -34 -72 -11 0 -19 -4 -19 -9 0 -19 -87 -22 -127 -5 -42 18
-167 22 -186 5 -7 -5 -136 -10 -315 -11 -267 -1 -302 1 -302 15 0 32 209 215
246 215 8 0 14 5 14 10 0 6 8 10 18 10 10 0 22 4 28 9 20 19 83 20 105 2 27
-22 17 -43 -17 -35 -22 6 -24 4 -24 -35 0 -23 5 -41 10 -41 6 0 10 5 10 10 0
6 11 10 24 10 20 0 25 6 28 31 2 19 11 36 23 43 11 6 23 16 27 21 12 16 199
10 209 -6 31 -50 61 -76 85 -71 13 2 24 8 24 12 0 19 -23 70 -31 70 -14 0 -69
42 -69 53 0 24 65 -6 103 -48 46 -49 87 -61 87 -25 0 11 -4 20 -10 20 -5 0
-20 12 -34 27 -19 20 -22 29 -13 35 16 10 19 10 48 -4z"/>
<path d="M2630 6180 c-19 -5 -71 -18 -115 -29 -44 -11 -97 -21 -117 -21 -20 0
-40 -4 -43 -10 -3 -5 -19 -10 -36 -10 -16 0 -29 -4 -29 -9 0 -4 -28 -11 -62
-14 -66 -6 -132 -32 -123 -48 7 -10 96 0 109 12 6 5 22 9 37 9 15 0 30 4 33 9
3 5 33 12 66 16 33 4 63 11 66 16 3 5 23 9 45 9 21 0 39 4 39 9 0 5 30 12 68
16 37 3 75 10 84 15 10 6 24 10 32 10 7 0 19 7 26 15 11 13 8 15 -16 14 -16
-1 -45 -5 -64 -9z"/>
<path d="M1730 5029 c0 -12 -7 -19 -20 -19 -11 0 -23 -7 -26 -15 -4 -8 -12
-15 -20 -15 -8 0 -14 -7 -14 -16 0 -12 6 -15 28 -10 26 6 26 6 8 -9 -12 -9
-24 -11 -29 -6 -10 10 -47 3 -47 -10 0 -5 73 -8 163 -8 89 1 153 3 142 6 -40
10 -39 23 1 23 28 1 48 9 74 30 19 17 42 30 52 30 11 0 18 7 18 19 0 18 -10
19 -165 19 -157 1 -165 0 -165 -19z"/>
<path d="M3022 4845 c-40 -40 -76 -75 -81 -77 -13 -5 -90 -68 -131 -108 -20
-19 -56 -51 -80 -70 -56 -44 -120 -105 -120 -113 0 -17 32 -5 37 13 3 11 10
20 15 20 6 0 30 19 54 43 54 53 71 67 81 67 4 0 23 18 42 40 19 22 39 40 46
40 7 0 31 17 53 38 21 20 54 48 72 61 17 14 45 36 60 50 15 14 37 33 49 41 27
19 27 30 -1 29 -14 -1 -51 -29 -96 -74z"/>
<path d="M4482 5363 c-7 -3 -23 -15 -36 -27 -13 -11 -37 -32 -54 -45 -36 -26
-42 -51 -12 -51 11 0 20 5 20 10 0 6 11 10 25 10 20 0 25 -6 31 -37 4 -21 10
-42 14 -48 6 -8 28 -77 47 -147 6 -24 -25 -23 -57 2 -14 11 -32 20 -40 20 -9
0 -32 11 -51 24 -20 14 -48 28 -63 32 -27 6 -30 12 -26 52 1 14 -4 22 -14 22
-9 0 -16 -3 -16 -7 -1 -5 -34 -33 -75 -63 -41 -30 -75 -61 -75 -67 0 -17 37
-17 42 -1 3 8 21 4 60 -15 30 -15 60 -27 66 -27 7 0 12 -4 12 -10 0 -5 9 -10
20 -10 11 0 20 -4 20 -10 0 -5 5 -10 11 -10 29 0 197 -85 220 -111 27 -31 13
-66 -30 -76 -31 -7 -36 -13 -39 -40 -3 -27 1 -33 22 -39 14 -3 37 -3 50 0 61
15 60 158 -3 367 -11 35 -29 104 -41 152 -20 81 -20 90 -6 112 26 40 18 54
-22 38z"/>
<path d="M3955 4935 c-22 -16 -59 -46 -104 -86 -16 -14 -43 -36 -61 -50 -18
-13 -40 -32 -48 -41 -9 -10 -22 -18 -29 -18 -6 0 -18 -8 -25 -18 -7 -10 -20
-23 -29 -28 -28 -15 -109 -87 -109 -96 0 -5 16 -6 36 -2 27 5 40 2 54 -12 11
-11 25 -24 32 -31 7 -6 22 -23 33 -38 11 -14 28 -35 37 -45 9 -10 25 -31 35
-47 24 -37 34 -50 61 -79 12 -14 22 -27 22 -30 0 -3 11 -20 25 -38 25 -33 25
-33 5 -51 -21 -19 -27 -45 -11 -45 10 0 46 28 93 73 17 15 38 32 49 37 10 6
23 20 29 31 11 19 9 20 -22 14 -30 -6 -36 -3 -48 20 -8 15 -27 37 -42 50 -15
13 -28 27 -28 32 0 4 -17 26 -38 48 -20 23 -56 66 -79 95 -23 30 -51 65 -63
77 -29 32 -12 54 89 118 9 6 24 19 34 29 17 19 19 19 63 -30 25 -27 54 -64 66
-82 11 -17 27 -38 37 -45 10 -6 22 -19 27 -29 5 -9 24 -32 41 -52 67 -72 80
-115 50 -154 -14 -18 -1 -27 17 -11 8 8 29 25 48 39 18 14 43 35 55 47 12 12
32 24 43 28 11 3 20 15 20 26 0 22 -12 24 -40 7 -17 -11 -26 -5 -80 51 -33 35
-60 67 -60 71 0 5 -12 22 -27 38 -56 59 -73 80 -73 89 0 5 -11 20 -24 32 -31
30 -37 54 -20 87 8 14 14 28 14 30 0 10 -37 2 -55 -11z"/>
<path d="M3310 4413 c-21 -9 -79 -52 -122 -93 -21 -19 -51 -45 -67 -58 -18
-14 -28 -29 -24 -37 3 -8 9 -12 14 -9 21 13 75 -17 94 -52 10 -19 29 -47 42
-62 12 -15 35 -42 50 -60 16 -19 38 -45 51 -58 12 -14 22 -29 22 -33 0 -4 9
-19 21 -32 17 -20 20 -32 15 -71 -8 -54 2 -60 38 -25 13 12 38 33 56 47 17 14
65 57 107 96 l75 70 1 77 c2 85 -3 92 -77 126 -35 15 -44 16 -79 4 -51 -18
-62 -7 -42 40 18 44 12 76 -21 112 -20 21 -31 25 -81 24 -32 0 -65 -3 -73 -6z
m55 -86 c1 -1 11 -19 24 -39 21 -35 22 -88 1 -88 -5 0 -12 -9 -15 -20 -3 -11
-12 -20 -18 -20 -18 0 -117 110 -117 130 0 4 10 17 21 29 18 20 28 22 62 17
23 -4 42 -8 42 -9z m170 -175 c47 -33 66 -142 30 -168 -30 -22 -60 -16 -88 16
-15 16 -27 33 -27 36 0 3 -11 15 -26 26 -32 26 -30 67 6 85 27 14 89 17 105 5z"/>
<path d="M2883 4078 c-63 -55 -74 -68 -67 -80 7 -10 23 -80 46 -198 5 -30 14
-59 19 -65 5 -5 9 -18 9 -30 0 -12 5 -26 11 -32 7 -7 9 -19 6 -27 -5 -13 -18
-10 -79 20 -40 20 -82 40 -93 47 -11 6 -33 18 -50 26 -16 9 -32 18 -35 22 -3
3 -22 13 -43 23 -41 19 -71 15 -102 -15 -11 -11 -32 -29 -47 -40 -35 -26 -36
-41 -3 -33 40 10 69 -3 89 -38 11 -18 28 -39 38 -46 10 -7 18 -19 18 -27 0 -8
6 -18 13 -22 7 -4 28 -33 47 -63 19 -30 40 -58 46 -62 7 -5 22 -28 34 -52 20
-43 20 -46 4 -71 -24 -37 -10 -42 30 -11 19 14 39 26 43 26 5 0 22 14 38 30
23 24 26 33 17 42 -10 10 -17 10 -32 0 -27 -17 -49 -15 -57 4 -3 9 -15 27 -27
40 -43 48 -76 92 -76 102 0 5 -7 12 -15 16 -8 3 -15 10 -15 16 0 6 -10 24 -22
40 -29 40 -17 47 29 16 20 -14 45 -26 54 -26 10 0 19 -3 21 -7 5 -12 64 -43
82 -43 9 0 16 -4 16 -10 0 -5 7 -10 15 -10 8 0 15 -4 15 -10 0 -5 6 -10 13
-10 6 -1 30 -9 52 -20 54 -26 69 -26 60 3 -4 12 -13 47 -20 77 -6 30 -21 87
-33 125 -29 99 -44 167 -37 173 3 3 20 -10 38 -29 64 -70 117 -133 117 -140 0
-4 9 -11 20 -14 11 -3 20 -12 20 -20 0 -7 7 -15 15 -19 20 -7 19 -36 -1 -64
-9 -13 -13 -26 -10 -29 7 -8 56 25 56 37 0 6 6 10 13 10 17 0 107 82 107 98 0
15 -5 15 -30 0 -18 -11 -24 -9 -53 24 -93 105 -144 164 -163 190 -12 15 -32
39 -45 53 -64 64 -63 63 -51 90 25 55 9 59 -45 13z"/>
<path d="M2164 3492 c-40 -27 -45 -31 -96 -75 -14 -12 -41 -34 -59 -47 -18
-14 -42 -33 -53 -43 l-21 -17 25 5 c35 7 83 -8 95 -31 6 -10 27 -37 48 -59 20
-21 37 -42 37 -46 0 -3 23 -30 50 -60 28 -30 50 -57 50 -60 0 -3 11 -19 25
-35 25 -29 35 -84 15 -84 -5 0 -10 -9 -10 -20 0 -30 15 -25 60 20 22 22 44 40
48 40 12 0 115 99 145 141 23 30 27 46 27 98 0 56 -3 66 -30 93 -29 29 -34 30
-94 26 l-63 -4 5 61 c4 60 3 63 -29 93 -46 43 -115 45 -175 4z m91 -86 c44
-42 47 -83 8 -126 -14 -17 -30 -30 -34 -30 -8 0 -119 134 -119 143 0 4 8 16
17 27 29 33 87 27 128 -14z m120 -136 c3 -5 14 -10 23 -10 9 0 29 -15 44 -32
22 -26 28 -43 28 -78 -1 -54 -17 -78 -57 -86 -25 -5 -33 -1 -55 28 -14 18 -38
47 -52 63 -41 46 -46 53 -46 65 0 5 7 10 15 10 8 0 15 4 15 8 0 8 56 40 72 41
4 1 10 -3 13 -9z"/>
<path d="M5610 5263 c-18 -16 -62 -52 -96 -80 -34 -29 -67 -53 -72 -53 -6 0
-12 -3 -14 -8 -1 -4 -28 -28 -58 -52 -30 -25 -59 -51 -63 -57 -4 -7 -14 -13
-22 -13 -8 0 -20 -8 -27 -18 -7 -10 -29 -29 -48 -43 -19 -13 -37 -26 -40 -29
-8 -8 -97 -80 -185 -150 -44 -35 -91 -74 -105 -87 -46 -43 -95 -83 -103 -83
-8 0 -20 -9 -66 -50 -63 -56 -93 -80 -101 -80 -4 0 -15 -11 -24 -25 -9 -14
-21 -25 -27 -25 -11 0 -15 -3 -89 -70 -30 -27 -58 -50 -61 -50 -3 0 -17 -9
-30 -21 -13 -11 -37 -30 -53 -42 -15 -12 -41 -33 -56 -47 -15 -14 -37 -32 -50
-40 -12 -8 -37 -28 -54 -45 -18 -16 -51 -43 -74 -59 -24 -16 -46 -34 -50 -40
-4 -6 -17 -18 -29 -26 -25 -17 -205 -164 -225 -183 -7 -7 -31 -26 -52 -42 -22
-17 -54 -42 -70 -57 -17 -16 -34 -28 -38 -28 -8 0 -37 -23 -90 -72 -17 -16
-33 -28 -37 -28 -3 0 -26 -18 -51 -40 -25 -21 -58 -49 -74 -62 -16 -13 -38
-32 -50 -44 -11 -12 -31 -26 -43 -33 -12 -6 -44 -29 -70 -52 -26 -22 -67 -57
-91 -77 -24 -20 -51 -41 -60 -46 -9 -6 -25 -20 -35 -33 -10 -13 -23 -23 -28
-23 -8 0 -87 -61 -144 -111 -45 -39 -102 -86 -135 -111 -19 -14 -45 -34 -57
-44 -12 -11 -47 -39 -77 -64 -31 -25 -56 -48 -56 -52 0 -5 -4 -8 -10 -8 -10 0
-41 -24 -93 -72 -17 -16 -34 -28 -38 -28 -5 0 -24 -16 -43 -35 -20 -19 -38
-35 -42 -35 -4 0 -24 -15 -45 -32 -21 -18 -50 -42 -64 -53 -15 -11 -39 -32
-53 -47 -15 -14 -45 -38 -67 -52 -42 -28 -101 -75 -144 -116 -14 -14 -39 -34
-56 -44 -35 -22 -44 -30 -104 -85 -24 -23 -48 -41 -53 -41 -5 0 -21 -12 -36
-26 -15 -14 -38 -31 -52 -39 -14 -7 -34 -25 -44 -39 -10 -14 -27 -26 -37 -26
-11 0 -19 -4 -19 -9 0 -14 -83 -91 -97 -91 -13 0 -17 -12 -13 -40 1 -13 61
-73 160 -162 40 -37 98 -78 108 -78 6 0 12 -7 16 -15 3 -8 10 -15 16 -15 6 0
26 -11 44 -25 18 -14 40 -25 49 -25 10 0 17 -4 17 -9 0 -5 13 -12 30 -16 16
-4 30 -10 30 -14 0 -8 139 -75 180 -87 14 -3 37 -15 52 -25 14 -11 31 -19 37
-19 14 0 190 -58 211 -69 9 -5 31 -12 50 -16 19 -3 67 -17 105 -30 39 -12 90
-28 115 -35 25 -6 60 -18 78 -26 18 -8 47 -14 65 -14 18 -1 43 -7 57 -15 14
-8 40 -14 58 -15 18 0 50 -9 72 -20 22 -11 45 -20 52 -20 7 0 24 -6 38 -13 14
-7 52 -21 85 -32 33 -11 71 -27 84 -37 13 -10 28 -18 33 -18 14 0 100 -40 128
-60 24 -17 26 -17 60 6 19 13 38 24 42 24 4 0 49 20 100 44 80 39 135 60 293
114 36 13 106 30 160 41 62 13 136 32 178 47 20 8 48 14 60 14 13 0 42 9 65
20 22 11 54 20 70 20 15 0 37 7 48 15 10 8 29 15 42 15 12 0 22 4 22 9 0 5 15
12 33 16 51 11 130 39 157 57 14 8 38 19 55 23 16 3 32 10 35 13 3 4 33 20 68
36 34 16 62 33 62 38 0 4 5 8 11 8 17 0 117 48 124 60 4 6 17 15 28 21 27 11
57 30 75 47 7 6 20 12 27 12 8 0 16 8 19 18 3 9 22 26 42 37 35 19 181 166
213 215 9 14 23 33 31 42 8 9 24 39 35 67 11 28 23 51 27 51 4 0 8 12 8 26 0
14 5 35 12 47 6 12 15 40 19 62 3 22 17 90 29 150 l23 110 1 1412 c1 987 -2
1413 -10 1413 -5 0 -25 -12 -44 -27z m-509 -975 c0 -73 2 -149 4 -168 9 -103
15 -286 21 -655 3 -225 10 -446 15 -490 5 -44 9 -181 9 -305 1 -240 0 -234 57
-335 6 -11 26 -49 44 -85 56 -113 89 -174 119 -220 16 -25 29 -53 29 -64 1
-16 -5 -18 -45 -13 -38 4 -52 11 -73 38 -31 40 -47 65 -61 101 -13 29 -39 44
-45 25 -2 -6 -6 -24 -9 -38 -3 -14 -15 -46 -26 -72 -19 -43 -24 -47 -56 -47
-39 0 -43 7 -65 103 -15 62 -33 73 -59 36 -8 -12 -26 -36 -40 -54 -14 -18 -34
-45 -44 -59 -14 -19 -28 -26 -52 -26 -18 0 -35 4 -39 9 -6 10 28 82 57 120 34
44 25 51 -64 51 -98 0 -113 9 -152 90 -68 137 -77 147 -110 115 -11 -11 -38
-15 -108 -15 -134 0 -141 -3 -136 -55 3 -23 13 -53 23 -68 17 -26 20 -27 111
-27 l94 0 0 -88 c0 -86 0 -88 33 -115 34 -30 91 -73 128 -97 12 -8 35 -26 51
-40 15 -14 43 -36 63 -50 19 -14 35 -28 35 -32 0 -12 -122 -9 -140 2 -10 6
-11 10 -2 10 6 0 12 5 12 10 0 12 -66 80 -77 80 -4 0 -25 18 -46 40 -35 38
-40 40 -97 40 -53 0 -60 -2 -60 -20 0 -10 6 -23 13 -27 17 -11 82 -94 90 -115
5 -15 1 -18 -23 -18 -21 0 -30 5 -30 16 0 9 -13 32 -30 51 -16 18 -30 40 -30
47 0 8 -13 28 -29 45 -19 21 -27 38 -24 51 5 19 0 20 -70 20 -42 0 -78 -3 -80
-7 -2 -5 7 -32 20 -60 18 -38 30 -53 44 -53 15 0 19 -5 15 -18 -3 -10 3 -34
13 -55 17 -33 17 -37 2 -37 -17 1 -61 62 -61 85 0 16 -52 61 -81 70 -12 4 -32
2 -45 -5 -12 -7 -31 -9 -41 -5 -10 4 -58 7 -108 7 -49 -1 -217 -1 -373 -2
-156 0 -294 -5 -308 -10 -21 -9 -43 -28 -83 -76 -6 -7 -15 -14 -22 -16 -7 -2
-13 -15 -14 -29 -1 -23 -6 -24 -68 -27 -53 -2 -67 0 -67 11 0 13 75 80 130
117 13 8 35 26 51 40 15 14 46 41 68 60 24 21 41 43 40 55 -1 11 -1 48 0 83
l1 62 98 0 97 0 22 68 c11 37 19 69 17 71 -3 3 -58 7 -124 9 -91 3 -123 8
-132 20 -9 11 -14 77 -18 231 l-5 216 -29 -3 c-16 -2 -35 -10 -43 -18 -8 -8
-20 -14 -27 -14 -16 0 -115 -78 -175 -138 -23 -23 -46 -42 -51 -42 -5 0 -12
-10 -16 -22 -4 -12 -16 -30 -28 -39 -12 -10 -31 -34 -41 -56 -11 -21 -28 -47
-37 -58 -42 -48 -66 -82 -73 -105 -4 -14 -18 -41 -31 -60 -13 -19 -24 -41 -24
-48 0 -7 -8 -24 -17 -39 -17 -25 -19 -25 -97 -19 -45 4 -84 10 -89 15 -14 14
87 186 163 276 14 17 34 44 45 59 11 16 26 34 33 41 6 8 12 18 12 23 0 5 9 17
20 27 21 19 18 35 -6 35 -21 0 -125 -49 -146 -69 -10 -9 -29 -25 -44 -36 -74
-55 -264 -258 -264 -282 0 -5 -9 -15 -20 -23 -11 -8 -20 -20 -20 -26 0 -20
-23 -31 -78 -38 -44 -6 -53 -4 -59 10 -4 10 0 22 9 28 8 6 19 18 24 27 5 9 29
39 54 66 25 28 63 72 85 98 53 63 65 75 76 75 5 0 9 6 9 13 0 7 10 23 23 34
12 12 37 37 55 57 18 20 36 36 40 36 4 0 15 8 24 18 9 9 23 22 30 29 7 7 18
18 24 25 6 7 24 22 40 33 15 11 42 31 59 45 41 35 82 60 97 60 7 0 30 11 49
24 20 14 48 28 62 31 14 4 33 15 43 26 9 10 33 22 53 25 20 4 38 10 41 13 10
13 50 31 67 31 10 0 31 7 47 15 15 8 41 15 56 15 16 0 40 4 54 10 26 9 26 11
20 77 -7 77 8 153 31 153 8 0 15 5 15 10 0 7 205 10 596 10 l597 0 23 -26 c23
-24 24 -31 24 -178 0 -165 1 -168 55 -182 16 -4 38 -16 49 -26 11 -10 25 -18
31 -18 7 0 22 -9 35 -20 13 -11 29 -20 37 -20 7 0 13 -4 13 -8 0 -5 17 -18 38
-30 20 -12 53 -36 74 -54 20 -18 50 -44 68 -58 18 -14 38 -31 45 -37 40 -38
43 -8 56 632 5 270 14 585 19 700 5 116 9 276 9 356 1 80 4 149 8 152 19 19
23 -4 24 -125z"/>
<path d="M3344 3182 c-6 -4 -18 -22 -27 -40 -14 -28 -16 -80 -17 -366 0 -349
5 -394 45 -410 9 -3 260 -6 557 -6 530 0 540 0 569 21 l29 20 0 367 0 367 -25
28 -26 27 -547 0 c-301 0 -552 -4 -558 -8z m1124 -49 c9 -20 12 -116 12 -367
0 -302 -2 -341 -17 -358 -15 -17 -46 -18 -564 -18 l-548 0 -15 22 c-23 33 -24
674 -1 718 l16 30 552 0 552 0 13 -27z"/>
<path d="M3402 3128 c-12 -6 -25 -21 -28 -32 -3 -12 -4 -161 -2 -333 3 -307 3
-312 25 -332 22 -21 32 -21 499 -21 465 0 477 0 505 21 l29 20 0 322 c0 276
-2 326 -16 345 l-15 22 -487 -1 c-331 0 -494 -4 -510 -11z"/>
<path d="M4540 2667 c0 -51 3 -56 48 -101 54 -54 83 -86 97 -109 6 -9 33 -48
60 -88 28 -39 59 -86 70 -104 11 -18 30 -45 41 -60 l21 -29 18 37 c9 20 23 41
31 48 8 6 14 19 14 29 0 9 8 28 18 41 38 49 53 91 39 107 -20 26 -88 86 -120
107 -17 11 -42 28 -56 37 -14 10 -40 24 -56 31 -17 8 -37 20 -45 28 -21 20
-143 79 -163 79 -14 0 -17 -10 -17 -53z"/>
<path d="M3625 2302 c-13 -9 -45 -79 -45 -97 0 -13 32 -15 208 -16 114 -1 257
-1 317 -1 92 -1 110 2 113 15 3 16 -31 92 -46 101 -11 6 -118 -18 -134 -31
-46 -36 -180 -37 -248 -3 -26 13 -142 43 -154 40 -1 0 -5 -4 -11 -8z"/>
<path d="M4008 2155 c-3 -3 -156 -7 -339 -8 l-334 -2 -3 -52 -3 -53 338 0
c187 0 344 -4 352 -9 9 -6 22 -6 33 0 12 6 24 5 37 -3 15 -9 25 -9 47 1 19 8
30 9 38 1 14 -14 203 -11 246 4 34 12 35 14 35 67 l0 54 -221 3 c-121 1 -223
0 -226 -3z"/>
</g>
</svg>
